HIERARCHY
ROOT Hips
{
	OFFSET 0.00000 0.00000 0.00000
	CHANNELS 6 Xposition Yposition Zposition Yrotation Zrotation Xrotation 
	JOINT Lumbar
	{
		OFFSET 0 0 0
		CHANNELS 3 Zrotation Xrotation Yrotation
		JOINT Neck
		{
			OFFSET 0.00 0.2701 0.00
			CHANNELS 3 Zrotation Xrotation Yrotation
			End Site
			{
				OFFSET 0.00 0.1379 0.00
			}
		}
		JOINT RightShoulder
		{
			OFFSET 0.0119 0.2289 0.1181
			CHANNELS 3 Zrotation Xrotation Yrotation
			JOINT RightElbow
			{
				OFFSET 0.00 -0.1475 0.00
				CHANNELS 2 Zrotation Yrotation
				JOINT RightWrist
				{
					OFFSET 0.00 -0.1605 0.00
					CHANNELS 2 Zrotation Xrotation
					End Site
					{
						OFFSET 0.0040 -0.1068 0.0006
					}
				}
			}
		}
		JOINT LeftShoulder
		{
			OFFSET 0.0119 0.2289 -0.1181
			CHANNELS 3 Zrotation Xrotation Yrotation
			JOINT LeftElbow
			{
				OFFSET 0.00 -0.1475 0.00
				CHANNELS 2 Zrotation Yrotation
				JOINT LeftWrist
				{
					OFFSET 0.00 -0.1605 0.00
					CHANNELS 2 Zrotation Xrotation
					End Site
					{
						OFFSET 0.0040 -0.1068 -0.0006
					}
				}
			}
		}
	}
	JOINT RightHip
	{
		OFFSET 0.0316 -0.0424 0.0458
		CHANNELS 3 Zrotation Xrotation Yrotation
		JOINT RightKnee
		{
			OFFSET 0.00 -0.2438 0.00
			CHANNELS 1 Zrotation
			JOINT RightAnkle
			{
				OFFSET 0.00 -0.2449 0.00
				CHANNELS 3 Zrotation Xrotation Yrotation
				End Site
				{
					OFFSET 0.1237 -0.0542 0.0051
				}
			}
		}
	}
	JOINT LeftHip
	{
		OFFSET 0.0316 -0.0424 -0.0458
		CHANNELS 3 Zrotation Xrotation Yrotation
		JOINT LeftKnee
		{
			OFFSET 0.00 -0.2438 0.00
			CHANNELS 1 Zrotation
			JOINT LeftAnkle
			{
				OFFSET 0.00 -0.2449 0.00
				CHANNELS 3 Zrotation Xrotation Yrotation
				End Site
				{
					OFFSET 0.1237 -0.0542 -0.0051
				}
			}
		}
	}
}
MOTION
Frames: 16
Frame Time: 0.02
-0.99206 -0.0279 -0.563 917.67828 -66.96646 4.05676 0.43895 0.93723 12.17406 3.81393 -3.66044 -2.11994 70.83433 -12.99891 42.56904 10.69996 100.05908 -24.75285 -4.58861 44.90655 34.00326 -23.82907 16.88375 -96.60888 -31.42515 3.40566 86.91607 -1.48402 -14.76181 -40.45829 -6.28518 -2.19398 -3.29219 81.15872 21.79367 1.54409 -27.708 -9.37629 2.59923 3.63897
-0.99346 -0.02794 -0.56303 917.50454 -67.6513 3.45445 0.25326 0.83458 11.97786 4.40734 -3.75354 -2.11994 71.31107 -13.04219 43.98145 11.57864 100.11605 -25.15058 -4.1094 46.70907 35.5779 -22.89657 15.47197 -94.58914 -30.90887 3.41183 87.60683 -1.09399 -14.59128 -40.5658 -6.29587 -2.28388 -3.33412 81.44539 21.95795 1.78661 -26.50201 -9.52978 2.58859 3.63957
-0.99465 -0.02812 -0.56238 916.85553 -68.36992 2.56869 0.09872 0.58815 11.85402 5.15439 -3.96174 -2.11994 71.69892 -13.01324 44.67261 12.55455 100.21058 -25.52154 -3.75432 48.62682 37.17687 -21.95315 14.40257 -92.39341 -30.47915 3.50256 88.4001 -0.6446 -14.35153 -40.78666 -6.31041 -2.37129 -3.37431 81.51534 22.13478 1.78848 -25.13512 -9.7899 2.59543 3.6529
-0.99594 -0.02823 -0.56203 916.45082 -69.06843 1.82653 -0.07771 0.42032 11.68573 5.82963 -4.12425 -2.11994 72.13951 -13.00429 45.67539 13.45845 100.25492 -25.89245 -3.36687 50.54714 38.72621 -20.99853 13.17374 -90.34949 -30.01389 3.57494 89.13995 -0.23676 -14.15781 -40.95541 -6.32296 -2.45848 -3.41464 81.71305 22.29823 1.86912 -23.89039 -9.9943 2.59492 3.66051
-0.99722 -0.02837 -0.56171 915.93467 -69.78907 1.02503 -0.21901 0.1996 11.56461 6.51615 -4.25368 -2.11994 72.52008 -13.05557 46.75191 14.48676 100.42663 -26.31917 -2.87616 52.23947 40.44199 -20.17673 11.9491 -88.02395 -29.56337 3.56463 89.91004 0.23227 -13.89722 -41.12477 -6.33653 -2.55213 -3.45805 81.78895 22.49166 2.09007 -22.43019 -10.22648 2.59225 3.66793
-0.99847 -0.02849 -0.56117 915.53071 -70.47176 0.27527 -0.42608 0.05384 11.36277 7.21311 -4.48207 -2.11994 73.00804 -12.96018 47.49805 15.27607 100.35384 -26.62093 -2.62909 54.43183 41.81218 -18.99433 10.80526 -86.2161 -29.06637 3.74371 90.6416 0.58873 -13.76118 -41.31952 -6.34893 -2.63139 -3.49451 82.06649 22.62779 1.96333 -21.38234 -10.42703 2.59765 3.67851
-0.99968 -0.02858 -0.56024 915.59932 -71.02983 -0.22241 -0.83428 0.14827 10.92411 7.91929 -4.94667 -2.11994 73.80858 -12.4988 47.55072 15.38519 99.50784 -26.59424 -3.0442 57.98338 42.26276 -17.54587 9.75642 -86.14677 -28.74224 4.45438 91.23321 0.61133 -13.99128 -41.56906 -6.35666 -2.67203 -3.51223 82.95276 22.58691 0.85826 -21.53182 -10.51647 2.62686 3.69767
-1.00086 -0.02866 -0.55911 915.78654 -71.55002 -0.66674 -1.30809 0.32273 10.40138 8.62714 -5.50915 -2.11994 74.72213 -11.88777 47.28855 15.24886 98.43073 -26.4412 -3.69695 62.03066 42.35723 -15.62006 8.78649 -86.57823 -28.32188 5.34929 91.78346 0.51989 -14.34964 -41.83838 -6.36314 -2.69798 -3.52293 84.0492 22.49065 -0.57845 -22.10018 -10.57045 2.66276 3.71916
-1.00205 -0.02874 -0.55806 915.89039 -72.09501 -1.16003 -1.74446 0.46176 9.91481 9.32223 -6.03328 -2.11994 75.58906 -11.33065 47.14136 15.22161 97.51953 -26.33786 -4.22851 65.84853 42.58802 -13.40953 7.81066 -86.57628 -27.71585 6.1382 92.35829 0.48642 -14.64579 -42.09087 -6.37054 -2.73036 -3.53686 85.0501 22.43066 -1.81297 -22.46491 -10.6395 2.69158 3.73752
-1.00323 -0.02886 -0.55704 916.10838 -72.6102 -1.55406 -2.21157 0.59303 9.43898 10.07335 -6.53553 -2.11994 76.43376 -10.83051 47.08395 15.20818 96.35647 -26.26277 -4.82034 69.69543 42.92706 -13.23078 6.72016 -87.34108 -28.02346 7.01601 92.91363 0.42999 -14.95318 -42.3802 -6.37668 -2.7641 -3.5508 86.04431 22.3257 -3.26522 -22.87783 -10.71637 2.7372 3.76462
-1.00443 -0.02889 -0.55593 916.11515 -73.17677 -2.14452 -2.63102 0.75983 8.92035 10.7062 -7.10506 -2.11994 77.35151 -10.17719 46.77883 15.10654 95.65774 -26.10351 -5.34109 73.58862 42.95617 -8.81447 5.88278 -86.75056 -26.47675 7.76142 93.49678 0.39239 -15.27203 -42.59622 -6.38496 -2.79103 -3.56279 87.10431 22.29924 -4.34928 -23.29453 -10.76745 2.75026 3.77444
-1.00568 -0.02867 -0.55464 915.57987 -73.90433 -3.23585 -2.89992 1.01872 8.29979 11.01085 -7.83689 -2.11994 78.45447 -9.13689 45.82936 14.819 96.33943 -25.70483 -5.61017 77.56796 42.21088 8.11493 5.7243 -81.2332 -19.199 8.00548 94.17991 0.44428 -15.56062 -42.60309 -6.40082 -2.80727 -3.57341 88.30236 22.51923 -4.25018 -23.5982 -10.75293 2.66219 3.73114
-1.00694 -0.02838 -0.55329 914.81824 -74.68254 -4.53439 -3.11927 1.30886 7.63948 11.19585 -8.63259 -2.11994 79.62509 -7.94824 44.65184 14.45103 97.48791 -25.23256 -5.79832 81.56078 41.16593 29.12139 5.81623 -74.51248 -10.1695 8.12382 94.88931 0.51713 -15.86139 -42.53537 -6.41865 -2.81642 -3.58193 89.55846 22.8172 -3.7823 -23.89573 -10.71364 2.54267 3.67113
-1.00819 -0.02812 -0.55195 914.11523 -75.43135 -5.77382 -3.36342 1.57642 6.99982 11.43566 -9.39796 -2.11994 80.7583 -6.82804 43.60721 14.12101 98.39586 -24.81953 -6.0212 85.49532 40.26307 47.64929 5.79238 -69.06687 -2.36617 8.36211 95.57788 0.57359 -16.17825 -42.50233 -6.43462 -2.82568 -3.58982 90.78462 23.06864 -3.54004 -24.211 -10.68725 2.44387 3.62193
-1.00945 -0.02785 -0.55064 913.59853 -76.20721 -6.86801 -3.60037 1.88176 6.3464 11.67385 -10.17159 -2.11994 81.92487 -5.69747 42.42865 13.77684 99.41785 -24.29502 -6.26141 89.66963 39.32694 68.82579 5.78012 -60.65141 7.22793 8.3525 96.30345 0.65447 -16.41237 -42.46638 -6.45448 -2.8471 -3.60393 92.03517 23.36439 -3.071 -24.4787 -10.65306 2.31869 3.55952
-1.0107 -0.0276 -0.54928 912.64397 -76.93749 -8.30897 -3.83949 2.11517 5.71324 11.88689 -10.9428 -2.11994 83.03483 -4.55618 41.47779 13.4459 100.31343 -23.98457 -6.44282 93.33847 38.38849 85.45985 5.80182 -58.01997 13.54229 8.81342 96.95768 0.69174 -16.8149 -42.41897 -6.46688 -2.84229 -3.60496 93.24327 23.58785 -2.97428 -24.83728 -10.62932 2.24026 3.52028
